<svg id="Layer_2" data-name="Layer 2" xmlns="http://www.w3.org/2000/svg" viewBox="0 0 941.65 768.32">
  <g id="Layer_1-2" data-name="Layer 1">
    <polygon fill="#9A7428" points="941.65 0 604.33 550.47 590.36 573.24 564.44 615.56 550.53 638.33 524.62 680.53 510.65 703.29 484.73 745.61 470.82 768.32 456.86 745.61 470.82 722.85 496.74 680.53 510.65 657.82 536.56 615.56 550.53 592.79 576.45 550.47 550.53 508.21 524.62 550.53 510.65 573.3 484.73 615.5 470.82 638.27 444.91 680.53 430.94 703.29 417.03 680.53 430.94 657.82 456.86 615.5 470.82 592.73 496.68 550.53 510.65 527.77 536.56 485.45 510.65 443.12 484.73 485.45 470.76 508.21 444.91 550.47 430.94 573.24 405.02 615.5 391.11 638.27 377.15 615.5 391.11 592.73 417.03 550.47 430.94 527.71 456.86 485.45 470.82 462.68 496.74 420.42 470.82 378.1 444.91 420.42 430.94 443.18 405.02 485.45 391.11 508.21 365.2 550.47 351.23 573.24 337.32 550.47 0 0 27.88 0 351.23 527.71 377.15 485.45 79.65 0 107.59 0 391.11 462.68 416.97 420.42 159.36 0 187.3 0 430.94 397.65 456.86 355.39 239.13 0 267 0 470.82 332.63 674.64 0 702.52 0 484.73 355.39 510.65 397.65 754.35 0 782.23 0 524.62 420.42 550.53 462.68 834 0 861.94 0 564.5 485.45 590.36 527.71 913.77 0 941.65 0" />
  </g>
</svg>
